<?xml version="1.0" encoding="UTF-8" standalone="no"?>
<!-- Created with Inkscape (http://www.inkscape.org/) -->

<svg
   width="512"
   height="512"
   viewBox="0 0 512 512"
   version="1.1"
   id="svg1"
   sodipodi:docname="io.kestra.plugin.ldapManager.IonToLdif.svg"
   inkscape:version="1.3.2 (091e20e, 2023-11-25, custom)"
   xml:space="preserve"
   xmlns:inkscape="http://www.inkscape.org/namespaces/inkscape"
   xmlns:sodipodi="http://sodipodi.sourceforge.net/DTD/sodipodi-0.dtd"
   xmlns:xlink="http://www.w3.org/1999/xlink"
   xmlns="http://www.w3.org/2000/svg"
   xmlns:svg="http://www.w3.org/2000/svg"
   xmlns:rdf="http://www.w3.org/1999/02/22-rdf-syntax-ns#"
   xmlns:cc="http://creativecommons.org/ns#"
   xmlns:dc="http://purl.org/dc/elements/1.1/"><title
     id="title2">DeleteLdapIut</title><sodipodi:namedview
     id="namedview1"
     pagecolor="#ffffff"
     bordercolor="#999999"
     borderopacity="1"
     inkscape:showpageshadow="2"
     inkscape:pageopacity="0"
     inkscape:pagecheckerboard="true"
     inkscape:deskcolor="#a4a4a4"
     inkscape:document-units="px"
     showgrid="false"
     inkscape:export-bgcolor="#ffffff00"
     inkscape:zoom="1.2940607"
     inkscape:cx="289.01272"
     inkscape:cy="274.71663"
     inkscape:window-width="1920"
     inkscape:window-height="974"
     inkscape:window-x="1506"
     inkscape:window-y="1609"
     inkscape:window-maximized="1"
     inkscape:current-layer="layer1"><inkscape:grid
       id="grid1"
       units="px"
       originx="0"
       originy="0"
       spacingx="1"
       spacingy="1"
       empcolor="#0099e5"
       empopacity="0.30196078"
       color="#0099e5"
       opacity="0.14901961"
       empspacing="5"
       dotted="false"
       gridanglex="30"
       gridanglez="30"
       visible="false" /></sodipodi:namedview><defs
     id="defs1"><linearGradient
       id="linearGradient1"
       inkscape:collect="always"><stop
         style="stop-color:#ffffff;stop-opacity:1;"
         offset="0"
         id="stop1" /><stop
         style="stop-color:#ffffff;stop-opacity:0;"
         offset="1"
         id="stop2" /></linearGradient><rect
       x="90.760486"
       y="356.80649"
       width="115.00947"
       height="119.16644"
       id="rect4" /><rect
       x="379.66982"
       y="321.47225"
       width="47.112313"
       height="141.33694"
       id="rect1" /><rect
       x="226.33541"
       y="334.11417"
       width="280.22479"
       height="184.20371"
       id="rect3" /><rect
       x="30.374016"
       y="145.01143"
       width="449.70256"
       height="251.57265"
       id="rect2" /><linearGradient
       inkscape:collect="always"
       xlink:href="#linearGradient1"
       id="linearGradient2"
       x1="35.111219"
       y1="160.75885"
       x2="137.93224"
       y2="160.75885"
       gradientUnits="userSpaceOnUse" /><rect
       x="90.760486"
       y="356.80649"
       width="115.00947"
       height="119.16644"
       id="rect4-6" /><rect
       x="379.66982"
       y="321.47225"
       width="47.112313"
       height="141.33694"
       id="rect1-9" /><rect
       x="226.33541"
       y="334.11417"
       width="280.22479"
       height="184.20371"
       id="rect3-2" /><rect
       x="30.374016"
       y="145.01143"
       width="449.70256"
       height="251.57265"
       id="rect2-0" /><rect
       x="226.33541"
       y="334.11417"
       width="280.22479"
       height="184.20371"
       id="rect3-3" /><rect
       x="30.374016"
       y="145.01143"
       width="433.07468"
       height="255.72962"
       id="rect2-8" /><rect
       x="90.760486"
       y="356.80649"
       width="115.00947"
       height="119.16644"
       id="rect4-0" /><rect
       x="379.66982"
       y="321.47225"
       width="47.112313"
       height="141.33694"
       id="rect1-1" /><rect
       x="226.33541"
       y="334.11417"
       width="280.22479"
       height="184.20371"
       id="rect3-5" /><rect
       x="30.374016"
       y="145.01143"
       width="449.70256"
       height="251.57265"
       id="rect2-3" /><rect
       x="226.33541"
       y="334.11417"
       width="280.22479"
       height="184.20371"
       id="rect3-3-0" /><rect
       x="30.374016"
       y="145.01143"
       width="433.07468"
       height="255.72962"
       id="rect2-8-2" /><linearGradient
       id="swatch1"
       inkscape:swatch="solid"><stop
         style="stop-color:#000000;stop-opacity:1;"
         offset="0"
         id="stop1-3" /></linearGradient><rect
       x="90.760486"
       y="356.80649"
       width="115.00947"
       height="119.16644"
       id="rect4-8" /><rect
       x="379.66982"
       y="321.47225"
       width="47.112313"
       height="141.33694"
       id="rect1-3" /><rect
       x="226.33541"
       y="334.11417"
       width="280.22479"
       height="184.20371"
       id="rect3-4" /><rect
       x="30.374016"
       y="145.01143"
       width="449.70256"
       height="251.57265"
       id="rect2-2" /><rect
       x="226.33541"
       y="334.11417"
       width="280.22479"
       height="184.20371"
       id="rect3-3-7" /><rect
       x="30.374016"
       y="145.01143"
       width="433.07468"
       height="255.72962"
       id="rect2-8-4" /><rect
       x="90.760486"
       y="356.80649"
       width="115.00947"
       height="119.16644"
       id="rect4-9" /><rect
       x="379.66982"
       y="321.47225"
       width="47.112313"
       height="141.33694"
       id="rect1-34" /><rect
       x="226.33541"
       y="334.11417"
       width="280.22479"
       height="184.20371"
       id="rect3-30" /><rect
       x="30.374016"
       y="145.01143"
       width="449.70256"
       height="251.57265"
       id="rect2-7" /><rect
       x="226.33541"
       y="334.11417"
       width="280.22479"
       height="184.20371"
       id="rect3-3-8" /><rect
       x="30.374016"
       y="145.01143"
       width="433.07468"
       height="255.72962"
       id="rect2-8-0" /><rect
       x="90.760486"
       y="356.80649"
       width="115.00947"
       height="119.16644"
       id="rect4-7" /><rect
       x="379.66982"
       y="321.47225"
       width="47.112313"
       height="141.33694"
       id="rect1-33" /><rect
       x="226.33541"
       y="334.11417"
       width="280.22479"
       height="184.20371"
       id="rect3-8" /><rect
       x="30.374016"
       y="145.01143"
       width="449.70256"
       height="251.57265"
       id="rect2-5" /><rect
       x="90.760486"
       y="356.80649"
       width="115.00947"
       height="119.16644"
       id="rect4-6-4" /><rect
       x="379.66982"
       y="321.47225"
       width="47.112313"
       height="141.33694"
       id="rect1-9-8" /><rect
       x="226.33541"
       y="334.11417"
       width="280.22479"
       height="184.20371"
       id="rect3-2-4" /><rect
       x="30.374016"
       y="145.01143"
       width="449.70256"
       height="251.57265"
       id="rect2-0-6" /><rect
       x="226.33541"
       y="334.11417"
       width="280.22479"
       height="184.20371"
       id="rect3-3-9" /><rect
       x="30.374016"
       y="145.01143"
       width="433.07468"
       height="255.72962"
       id="rect2-8-9" /><rect
       x="90.760486"
       y="356.80649"
       width="115.00947"
       height="119.16644"
       id="rect4-0-4" /><rect
       x="379.66982"
       y="321.47225"
       width="47.112313"
       height="141.33694"
       id="rect1-1-3" /><rect
       x="226.33541"
       y="334.11417"
       width="280.22479"
       height="184.20371"
       id="rect3-5-0" /><rect
       x="30.374016"
       y="145.01143"
       width="449.70256"
       height="251.57265"
       id="rect2-3-3" /><rect
       x="226.33541"
       y="334.11417"
       width="280.22479"
       height="184.20371"
       id="rect3-3-0-1" /><rect
       x="30.374016"
       y="145.01143"
       width="433.07468"
       height="255.72962"
       id="rect2-8-2-3" /><rect
       x="90.760486"
       y="356.80649"
       width="115.00947"
       height="119.16644"
       id="rect4-8-7" /><rect
       x="379.66982"
       y="321.47225"
       width="47.112313"
       height="141.33694"
       id="rect1-3-6" /><rect
       x="226.33541"
       y="334.11417"
       width="280.22479"
       height="184.20371"
       id="rect3-4-4" /><rect
       x="30.374016"
       y="145.01143"
       width="449.70256"
       height="251.57265"
       id="rect2-2-2" /><rect
       x="226.33541"
       y="334.11417"
       width="280.22479"
       height="184.20371"
       id="rect3-3-7-1" /><rect
       x="30.374016"
       y="145.01143"
       width="433.07468"
       height="255.72962"
       id="rect2-8-4-3" /></defs><g
     inkscape:label="Calque 1"
     inkscape:groupmode="layer"
     id="layer1"><rect
       style="fill:#008080;fill-opacity:1;stroke:#ffffff;stroke-width:1.85425;stroke-miterlimit:4.2;paint-order:fill markers stroke"
       id="rect5"
       width="509.61246"
       height="509.6124"
       x="1.3641517"
       y="1.3641537"
       ry="27.85331" /><path
       d="m 493.77418,499.03153 c -0.45893,-0.22739 -1.2775,-0.88083 -1.81906,-1.4521 -2.20836,-2.3295 -2.14428,-0.96926 -2.14428,-45.51424 0,-39.3957 -0.0371,-41.46986 -0.77247,-43.00708 -0.42486,-0.8883 -1.39456,-2.08686 -2.15488,-2.66345 l -1.3824,-1.04834 -50.93277,0.12129 c -50.19694,0.11948 -50.94882,0.13467 -52.04483,1.04833 -0.61164,0.50988 -1.45643,1.55283 -1.87734,2.31763 -0.72331,1.31431 -0.77675,3.70623 -0.97389,43.59241 -0.19611,39.67112 -0.25375,42.27831 -0.96137,43.47782 -2.52132,4.27405 -8.71916,4.12364 -11.14417,-0.27045 -0.8201,-1.486 -0.83198,-2.22716 -0.72628,-45.31406 l 0.10741,-43.80335 1.55265,-3.52882 c 1.77739,-4.03956 4.96803,-7.88324 8.13231,-9.79674 4.58816,-2.77454 2.22372,-2.66664 58.30064,-2.66063 41.52823,0.005 51.72958,0.12385 53.41719,0.62552 7.37783,2.19296 13.17274,9.21591 14.3958,17.44656 0.30198,2.03237 0.40835,16.54092 0.3268,44.58072 -0.11972,41.155 -0.12945,41.58051 -0.98106,42.84765 -1.48779,2.21372 -2.92373,3.10187 -5.27612,3.26325 -1.21415,0.0832 -2.58302,-0.0346 -3.04193,-0.26192 z m -91.57379,-21.47997 c -0.75636,-0.57364 -1.7228,-1.76977 -2.14767,-2.65807 -1.56342,-3.26884 -0.61212,-7.53241 2.14767,-9.62544 l 1.37517,-1.04292 h 30.95739 30.95739 l 1.3792,1.04292 c 2.30904,1.74607 3.09489,3.3056 3.09489,6.14174 0,2.83617 -0.78585,4.3957 -3.09489,6.14177 l -1.3792,1.04291 h -30.95739 -30.95739 z m 0.59416,-34.65288 c -3.28672,-1.8169 -4.57792,-6.9294 -2.57561,-10.19814 0.51626,-0.84281 1.46861,-1.96876 2.11629,-2.50207 1.16617,-0.96025 1.47429,-0.97091 31.6573,-1.09731 30.21145,-0.12655 30.4956,-0.11903 32.28629,0.84407 1.92246,1.03402 3.3376,3.09465 3.76826,5.48713 0.38484,2.13789 -0.86498,5.37355 -2.66489,6.89907 l -1.49454,1.26671 -30.69626,0.12024 c -30.11323,0.11801 -30.72855,0.10251 -32.39684,-0.81974 z"
       style="fill:#000000;stroke-width:0.633998"
       id="path1-8"
       sodipodi:nodetypes="ssssscssssssscssccssssssssscccssscccsssssssscsss" /><path
       style="fill:#000000;stroke-width:0.971723"
       d="m 16.753997,500.17521 c -1.182167,-0.61707 -2.803143,-2.09256 -3.60217,-3.27887 l -1.452777,-2.15691 -0.169842,-48.20605 c -0.158028,-44.8536 -0.0897,-48.37145 0.982411,-50.58439 1.607425,-3.31785 4.119927,-5.0493 7.816599,-5.38666 3.697111,-0.3374 6.915224,1.15379 9.007656,4.17393 1.327742,1.91641 1.363364,2.84813 1.683906,44.04438 l 0.32747,42.08654 22.922901,0.34681 c 20.706217,0.31327 23.091607,0.46811 24.667562,1.60124 3.834825,2.75731 4.986474,9.52672 2.335657,13.72906 -3.038185,4.81642 -2.805476,4.78399 -34.207559,4.76758 -24.60163,-0.0129 -28.434185,-0.15657 -30.311814,-1.13666 z m 73.696209,-0.35242 c -1.480539,-0.93093 -2.981247,-2.68493 -3.765905,-4.40153 -1.263193,-2.76347 -1.304503,-4.33583 -1.304503,-49.65352 v -46.79967 l 1.473617,-3.0435 c 2.726791,-5.63172 3.021075,-5.69101 26.688815,-5.37707 18.3989,0.24406 21.17158,0.43053 25.63151,1.72384 7.69274,2.23078 13.69345,5.77664 19.27041,11.387 8.60385,8.6554 13.11315,20.83243 13.84504,37.38749 0.92792,20.98933 -3.34449,35.65715 -13.52728,46.4412 -5.75813,6.09813 -11.33533,9.4409 -19.67702,11.79369 -5.08826,1.43516 -7.31296,1.59252 -25.87014,1.82997 -20.048942,0.25653 -20.333953,0.24041 -22.764544,-1.2879 z m 42.412754,-20.27348 c 15.11676,-4.43161 20.63061,-13.87133 20.63061,-35.31966 0,-13.06943 -1.86768,-19.59855 -7.29385,-25.49826 -5.87552,-6.38829 -14.80226,-8.95946 -31.10594,-8.95946 h -9.41084 v 35.79837 35.79838 l 11.62519,-0.33368 c 7.95477,-0.22833 12.86589,-0.69741 15.55483,-1.48569 z m 39.61721,20.2188 c -3.32869,-2.39925 -4.77576,-4.89924 -4.79499,-8.28387 -0.0127,-2.22878 4.10591,-14.69946 16.21991,-49.11254 8.93027,-25.36886 16.8369,-47.01887 17.57028,-48.11112 1.85132,-2.75723 4.89145,-3.90979 10.31292,-3.90979 5.48713,0 9.25739,1.69309 10.7985,4.84924 0.55355,1.13365 8.22242,22.57811 17.04194,47.65436 11.20873,31.86946 16.03474,46.43573 16.03303,48.39231 -0.006,7.01693 -6.65701,11.83834 -12.88998,9.3443 -3.86365,-1.54598 -5.20662,-3.84915 -9.12767,-15.65374 l -3.77818,-11.37447 -18.02815,0.18413 -18.02816,0.18414 -3.64717,10.75099 c -2.00594,5.91304 -4.02748,11.47981 -4.49231,12.37058 -1.05901,2.02948 -5.55633,4.2408 -8.66561,4.26088 -1.38839,0.009 -3.25014,-0.62696 -4.52436,-1.5454 z m 50.43704,-44.85052 c 0,-0.98926 -10.52992,-32.94568 -11.04301,-33.51354 -0.2515,-0.27835 -2.85998,6.74447 -5.79661,15.60627 -2.93663,8.86181 -5.53826,16.65859 -5.78138,17.32619 -0.41071,1.12779 0.37531,1.21383 11.08948,1.21383 6.51153,0 11.53152,-0.27546 11.53152,-0.63275 z m 41.92922,45.19625 c -1.25358,-0.66701 -2.94824,-2.27331 -3.76591,-3.56955 l -1.48667,-2.35682 v -48.34771 -48.3477 l 1.48667,-2.35682 c 2.92218,-4.63252 3.73234,-4.78217 25.89535,-4.78337 25.39812,-0.001 31.73534,1.01775 39.61134,6.3702 8.77813,5.96552 13.4537,19.18832 11.69069,33.06202 -1.76643,13.90073 -7.70786,21.94586 -19.35513,26.20832 -5.1286,1.87687 -5.83577,1.95 -22.32481,2.30872 l -17.02844,0.37046 -0.32747,18.15841 c -0.30611,16.97414 -0.41593,18.286 -1.6839,20.11475 -1.73925,2.50846 -5.21945,4.38184 -8.1402,4.38184 -1.26076,0 -3.31794,-0.54574 -4.57152,-1.21275 z m 44.87647,-60.88061 c 2.14692,-0.58171 5.05977,-1.90824 6.47298,-2.94786 7.42732,-5.46383 7.48617,-17.31553 0.11384,-22.92256 -4.67234,-3.55355 -8.7291,-4.28449 -23.779,-4.28449 h -13.28867 v 15.60627 15.60628 h 13.28867 c 9.76506,0 14.32371,-0.28045 17.19218,-1.05764 z"
       id="path1"
       sodipodi:nodetypes="sscssssscsssssssscssssssssssssscccssssssssscsscccsssssssssssscccscsssscsssssssscccss" /><path
       d="m 458.94042,349.82784 c -0.95085,-0.40355 -2.64684,-1.56324 -3.76891,-2.5771 -4.57554,-4.13428 -4.44276,-143.72021 -4.44276,-222.77621 0,-69.917339 -0.077,-73.598436 -1.6005,-76.326613 -0.88027,-1.576525 -2.88939,-3.703655 -4.46472,-4.726967 l -2.8642,-1.860544 -271.52814,0.215263 c -104.003621,0.212066 -105.561441,0.23901 -107.832261,1.86053 -1.26727,0.904905 -3.01761,2.75588 -3.8897,4.113211 -1.49864,2.332539 -1.60935,6.577621 -2.01782,77.36542 -0.4063,70.40616 -0.52574,217.03325 -1.99186,219.1621 -5.22394,7.58533 -18.06531,7.3184 -23.08973,-0.48 -1.69916,-2.63727 -1.72379,-145.95262 -1.50478,-222.42091 l 0.22255,-77.739821 3.21696,-6.26277 c 3.68258,-7.169191 10.29331,-13.990733 16.8494,-17.386706 9.50627,-4.924122 4.60735,-4.732618 120.793751,-4.721958 86.04278,0.0076 273.17906,0.219812 276.67564,1.110145 15.28622,3.891943 27.29274,16.355907 29.82682,30.9632 0.62569,3.60696 0.84606,29.355931 0.6771,79.11945 -0.24806,73.03966 -0.26821,215.79483 -2.03266,218.04369 -3.08257,3.92879 -6.05772,5.50502 -10.93167,5.79144 -2.5156,0.14768 -5.35177,-0.0614 -6.30259,-0.46485 z"
       style="fill:#000000;stroke:#ffffff;stroke-width:6.34446;stroke-dasharray:none;stroke-opacity:1"
       id="path1-2"
       sodipodi:nodetypes="csscsccsssssccssccsssccc" /><text
       xml:space="preserve"
       style="font-weight:bold;font-size:183.901px;line-height:1.3;font-family:'Yu Gothic UI';-inkscape-font-specification:'Yu Gothic UI Bold';text-align:center;letter-spacing:0px;text-anchor:middle;fill:#000000;fill-opacity:1;stroke:#ffffff;stroke-width:3.41798;stroke-miterlimit:4.2;stroke-dasharray:none;paint-order:fill markers stroke"
       x="250.98848"
       y="251.61153"
       id="text11"><tspan
         sodipodi:role="line"
         id="tspan11"
         x="250.98848"
         y="251.61153"
         style="stroke-width:3.41798;stroke-dasharray:none">LDIF</tspan></text></g><metadata
     id="metadata2"><rdf:RDF><cc:Work
         rdf:about=""><dc:title>DeleteLdapIut</dc:title></cc:Work></rdf:RDF></metadata></svg>
